<svg width="15" height="13" viewBox="0 0 15 13" fill="none" xmlns="http://www.w3.org/2000/svg">
<path d="M14.1535 5.15233L14.1769 5.15745H4.14196L7.29659 1.99588C7.45107 1.84152 7.53581 1.63242 7.53581 1.41296C7.53581 1.1935 7.45107 0.985867 7.29659 0.831147L6.80573 0.340042C6.65138 0.185688 6.44569 0.100342 6.22636 0.100342C6.00689 0.100342 5.80109 0.185078 5.64673 0.339432L0.239094 5.74659C0.08413 5.90155 -0.000606347 6.10796 3.26648e-06 6.32755C-0.000606347 6.54835 0.08413 6.75489 0.239094 6.90961L5.64673 12.3172C5.80109 12.4715 6.00677 12.5563 6.22636 12.5563C6.44569 12.5563 6.65138 12.4714 6.80573 12.3172L7.29659 11.8261C7.45107 11.672 7.53581 11.4662 7.53581 11.2468C7.53581 11.0274 7.45107 10.8325 7.29659 10.6782L4.10636 7.49898H14.1647C14.6167 7.49898 14.9965 7.10944 14.9965 6.65771V5.96312C14.9965 5.5114 14.6055 5.15233 14.1535 5.15233Z" fill="white"/>
</svg>
