<svg width="6" height="11" viewBox="0 0 6 11" fill="none" xmlns="http://www.w3.org/2000/svg">
<path d="M5.85017 5.15313L1.67026 0.973296C1.57358 0.876544 1.44453 0.823242 1.30692 0.823242C1.16931 0.823242 1.04026 0.876544 0.943582 0.973297L0.635761 1.28104C0.435459 1.48157 0.435459 1.80749 0.635761 2.00772L4.14574 5.51769L0.631867 9.03156C0.535191 9.12832 0.481813 9.25729 0.481813 9.39483C0.481813 9.53251 0.535191 9.66149 0.631868 9.75832L0.939689 10.066C1.03644 10.1627 1.16542 10.216 1.30303 10.216C1.44063 10.216 1.56969 10.1627 1.66637 10.066L5.85017 5.88233C5.94708 5.78527 6.0003 5.65568 6 5.51792C6.0003 5.37963 5.94708 5.25011 5.85017 5.15313Z" fill="#ACB0B8"/>
</svg>
