<svg width="27" height="21" viewBox="0 0 27 21" fill="none" xmlns="http://www.w3.org/2000/svg">
<path d="M21.1292 9.48104C20.8521 9.48104 20.5806 9.50722 20.3134 9.54975L19.1677 6.44695L17.9369 2.88826H20.6406V4.85901C20.6406 5.46103 21.1292 5.94963 21.7312 5.94963C22.3332 5.94963 22.8218 5.46103 22.8218 4.85901V1.79765C22.8218 1.19563 22.3332 0.707031 21.7312 0.707031H16.4057C16.0534 0.707031 15.7219 0.877713 15.5174 1.16455C15.3129 1.45192 15.2595 1.82055 15.3745 2.15373L16.6091 5.72332H9.17764L8.39185 4.17519H9.50973C10.1118 4.17519 10.6003 3.6866 10.6003 3.08458C10.6003 2.48256 10.1118 1.99396 9.50973 1.99396H3.72074C3.11872 1.99396 2.63013 2.48256 2.63013 3.08458C2.63013 3.6866 3.11872 4.17519 3.72074 4.17519H5.9456L7.32087 6.88537L6.33768 9.5492C6.06993 9.50667 5.79837 9.48104 5.52244 9.48104C2.60886 9.48104 0.238403 11.9153 0.238403 14.9069C0.238403 17.9017 2.60886 20.3381 5.52244 20.3381C8.43602 20.3381 10.8065 17.9017 10.8065 14.9069C10.8065 13.8261 10.5006 12.8091 9.95907 11.9513H16.7094C16.1609 12.8161 15.8451 13.8381 15.8451 14.9069C15.8451 17.9017 18.2156 20.3381 21.1286 20.3381C24.0427 20.3381 26.4127 17.9017 26.4127 14.9069C26.4132 11.9153 24.0427 9.48104 21.1292 9.48104ZM5.52244 18.1569C3.81181 18.1569 2.41964 16.6987 2.41964 14.9069C2.41964 13.1177 3.81181 11.6623 5.52244 11.6623C5.53444 11.6623 5.54534 11.6655 5.55679 11.6655L4.50326 14.5197L4.4989 14.5311C4.29059 15.0961 4.57906 15.7232 5.14454 15.9315C5.26942 15.9773 5.39647 15.9997 5.52244 15.9997C5.96578 15.9997 6.38294 15.727 6.54544 15.2864L7.57825 12.4895C8.22553 13.0959 8.62524 13.9695 8.62524 14.9069C8.62524 16.6987 7.23307 18.1569 5.52244 18.1569ZM8.58271 9.77005L9.27198 7.90455H17.3802L18.0694 9.77005H8.58271ZM21.1292 18.1569C19.4185 18.1569 18.0269 16.6987 18.0269 14.9069C18.0269 13.9695 18.4266 13.0975 19.0744 12.4911L20.1067 15.2858C20.315 15.8513 20.9443 16.1393 21.5076 15.9309C21.9477 15.7684 22.2203 15.3513 22.2209 14.9085C22.2209 14.7831 22.1991 14.6549 22.1527 14.5306L21.0948 11.6655C21.1068 11.6655 21.1177 11.6623 21.1292 11.6623C22.8403 11.6623 24.232 13.1177 24.232 14.9069C24.232 16.6987 22.8398 18.1569 21.1292 18.1569Z" fill="#3A4869"/>
</svg>
