<svg width="24" height="24" viewBox="0 0 24 24" fill="none" xmlns="http://www.w3.org/2000/svg">
<path d="M23.6003 12.2597C23.6003 5.8926 18.44 0.7323 12.0729 0.7323C5.70584 0.7323 0.545532 5.8926 0.545532 12.2597C0.545532 18.6268 5.70584 23.7871 12.0729 23.7871C12.1405 23.7871 12.208 23.7871 12.2755 23.7826V14.8128H9.79896V11.9265H12.2755V9.80111C12.2755 7.33803 13.7795 5.99617 15.9769 5.99617C17.0306 5.99617 17.9357 6.07272 18.1968 6.10874V8.68439H16.6839C15.4906 8.68439 15.2565 9.25176 15.2565 10.0848V11.922H18.1158L17.742 14.8083H15.2565V23.3413C20.0745 21.9589 23.6003 17.5236 23.6003 12.2597Z" fill="white"/>
</svg>
