<svg width="23" height="23" viewBox="0 0 23 23" fill="none" xmlns="http://www.w3.org/2000/svg">
<path fill-rule="evenodd" clip-rule="evenodd" d="M21.9756 7.2188L20.1298 5.37297L21.5174 3.98592C21.6401 3.86336 21.709 3.6973 21.709 3.52361C21.709 3.34991 21.6401 3.18385 21.5174 3.06126L19.6597 1.20348C19.4144 0.958241 18.9801 0.958241 18.7349 1.20348L17.3479 2.59106L15.5018 0.744875C14.991 0.23413 14.1629 0.23413 13.6521 0.744875C13.1413 1.25562 13.1413 2.08376 13.6521 2.59454L20.1259 9.06847C20.6368 9.57922 21.4649 9.57922 21.9756 9.06847C22.4864 8.55773 22.4864 7.72959 21.9756 7.2188ZM8.75703 20.451L2.28319 13.9771C1.77235 13.4664 0.944306 13.4664 0.433474 13.9771C-0.0772712 14.4879 -0.0772712 15.3161 0.433474 15.8268L2.27961 17.673L0.894736 19.0573C0.772096 19.1799 0.703125 19.3459 0.703125 19.5196C0.703125 19.6933 0.772096 19.8594 0.894736 19.982L2.75251 21.8391C2.88021 21.9669 3.04754 22.0308 3.21487 22.0308C3.38219 22.0308 3.54952 21.9669 3.67722 21.8392L5.06153 20.4549L6.90736 22.3007C7.4181 22.8115 8.24624 22.8115 8.75703 22.3007C9.26786 21.7899 9.26786 20.9618 8.75703 20.451ZM7.83216 12.1274L11.8024 8.14366L14.577 10.9181L10.6067 14.902L7.83216 12.1274ZM20.126 10.9182L11.8024 2.59457C11.2917 2.08382 10.4635 2.08382 9.95277 2.59457C9.44194 3.1054 9.44194 3.93345 9.95277 4.44428L18.2764 12.7679C18.7871 13.2786 19.6152 13.2786 20.126 12.7679C20.6369 12.2571 20.6369 11.429 20.126 10.9182ZM4.13275 10.2777L12.4564 18.6014C12.9672 19.1122 12.9672 19.9403 12.4564 20.451C11.9456 20.9618 11.1175 20.9618 10.6067 20.451L2.28313 12.1274C1.7723 11.6167 1.7723 10.7886 2.28313 10.2777C2.79387 9.76699 3.62201 9.76699 4.13275 10.2777Z" fill="#7581A4"/>
</svg>
