<svg width="22" height="23" viewBox="0 0 22 23" fill="none" xmlns="http://www.w3.org/2000/svg">
<path fill-rule="evenodd" clip-rule="evenodd" d="M17.6574 3.0828C17.6574 4.35633 16.625 5.38874 15.3515 5.38874C14.0779 5.38874 13.0455 4.35633 13.0455 3.0828C13.0455 1.80926 14.0779 0.776855 15.3515 0.776855C16.625 0.776855 17.6574 1.80926 17.6574 3.0828ZM19.1223 7.63821C19.7902 7.26711 20.6326 7.50779 21.0036 8.17576C21.3747 8.84372 21.134 9.68604 20.4661 10.0571L17.1456 11.9018C16.9333 12.0197 16.7025 12.0761 16.4747 12.0761C16.0216 12.0761 15.5798 11.8535 15.3156 11.4495L14.1193 9.61981L12.1958 12.9017L14.9779 15.0937C15.4603 15.4738 15.6344 16.1266 15.4053 16.6965L13.5145 21.4006C13.2975 21.9405 12.7785 22.2685 12.2303 22.2685C12.0585 22.2685 11.8839 22.2363 11.7147 22.1683C11.0057 21.8833 10.662 21.0776 10.947 20.3686L12.4514 16.626L9.94224 14.6491L8.94838 16.3309C8.69946 16.7522 8.24654 17.0107 7.75723 17.0107H2.13076C1.36663 17.0107 0.747192 16.3912 0.747192 15.6271C0.747192 14.863 1.36667 14.2435 2.13076 14.2435H6.96771L10.9572 7.27961H8.34418L6.98605 9.74569C6.73403 10.2034 6.26088 10.4621 5.77291 10.4621C5.54721 10.4621 5.31836 10.4067 5.10671 10.2902C4.43741 9.92157 4.19366 9.08017 4.56225 8.41082L6.31473 5.22864C6.55803 4.78692 7.02236 4.51253 7.52666 4.51253L12.0867 4.51282C12.6388 5.76857 13.8941 6.64805 15.3515 6.64805C15.3892 6.64805 15.4267 6.6467 15.4641 6.64535C15.4695 6.64516 15.4748 6.64496 15.4802 6.64477L16.9271 8.85774L19.1223 7.63821Z" fill="#7581A4"/>
</svg>
