<svg width="22" height="21" viewBox="0 0 22 21" fill="none" xmlns="http://www.w3.org/2000/svg">
<path fill-rule="evenodd" clip-rule="evenodd" d="M5.42774 9.71464L8.92898 6.2134L7.85164 5.13605C6.65047 3.94024 5.50313 3.50933 3.54241 3.52009V0.826833C6.23567 0.816076 7.77084 1.30622 9.44609 2.98147L16.3463 9.89239C16.1847 9.97859 16.0392 10.0594 15.91 10.1402L15.9056 10.1428C15.5096 10.3783 15.2668 10.5226 14.6711 10.5226C14.0732 10.5226 13.8308 10.3826 13.4322 10.1402C12.9474 9.84391 12.2794 9.44533 11.0836 9.44533C9.89312 9.44533 9.2258 9.84574 8.74154 10.1363L8.73507 10.1402L8.73067 10.1428C8.33469 10.3783 8.09188 10.5226 7.49618 10.5226C6.89827 10.5226 6.65587 10.3772 6.25729 10.1348C6.03105 10.0001 5.76169 9.84391 5.42774 9.71464ZM18.2585 12.1386C19.4543 12.1386 20.1222 12.5372 20.607 12.8334L20.6247 12.8437C21.0235 13.0746 21.2674 13.2159 21.8567 13.2159V15.3705C20.6608 15.3705 19.9929 14.9719 19.5081 14.6756L19.5037 14.673C19.1077 14.4376 18.8649 14.2932 18.2692 14.2932C17.6735 14.2932 17.4307 14.4376 17.0347 14.673L17.0303 14.6756L17.0238 14.6795C16.5396 14.9701 15.8723 15.3705 14.6818 15.3705C13.4859 15.3705 12.818 14.9719 12.3332 14.6756C11.9346 14.4332 11.6922 14.2932 11.0943 14.2932C10.4986 14.2932 10.2558 14.4376 9.85982 14.673L9.85543 14.6756C9.35988 14.9719 8.69193 15.3705 7.49612 15.3705C6.30031 15.3705 5.63236 14.9719 5.14757 14.681C4.74898 14.4386 4.50658 14.2932 3.90327 14.2932C3.30529 14.2932 3.06718 14.4361 2.66964 14.6746L2.65898 14.681C2.17419 14.9719 1.50624 15.3705 0.310425 15.3705V13.2159C0.908332 13.2159 1.15073 13.0704 1.55472 12.828C2.03951 12.5372 2.70746 12.1386 3.90327 12.1386C5.09909 12.1386 5.76704 12.5372 6.25183 12.828C6.65041 13.0704 6.89281 13.2159 7.49612 13.2159C8.09183 13.2159 8.33464 13.0715 8.73062 12.8361L8.73501 12.8334L8.74148 12.8296C9.22575 12.539 9.89306 12.1386 11.0836 12.1386C12.2794 12.1386 12.9473 12.5372 13.4321 12.8334C13.8307 13.0758 14.0731 13.2159 14.671 13.2159C15.2667 13.2159 15.5095 13.0715 15.9055 12.8361L15.9099 12.8334L15.9164 12.8296C16.4006 12.539 17.0679 12.1386 18.2585 12.1386ZM18.2585 16.9864C17.0679 16.9864 16.4006 17.3868 15.9164 17.6774L15.9099 17.6813L15.9055 17.6839C15.5095 17.9193 15.2667 18.0637 14.671 18.0637C14.0731 18.0637 13.8307 17.9237 13.4321 17.6813C12.9473 17.385 12.2794 16.9864 11.0836 16.9864C9.89306 16.9864 9.22575 17.3868 8.74148 17.6774L8.73501 17.6813L8.73062 17.6839C8.33463 17.9193 8.09183 18.0637 7.49612 18.0637C6.89281 18.0637 6.65041 17.9183 6.25183 17.6759C5.76704 17.385 5.09909 16.9864 3.90327 16.9864C2.70746 16.9864 2.03951 17.385 1.55472 17.6759C1.15073 17.9183 0.908332 18.0637 0.310425 18.0637V20.2183C1.50624 20.2183 2.17419 19.8198 2.65898 19.5289L2.66964 19.5225C3.06718 19.2839 3.30529 19.1411 3.90327 19.1411C4.50658 19.1411 4.74898 19.2865 5.14757 19.5289C5.63236 19.8198 6.30031 20.2183 7.49612 20.2183C8.69193 20.2183 9.35988 19.8198 9.85543 19.5235L9.85982 19.5209C10.2558 19.2854 10.4986 19.1411 11.0943 19.1411C11.6922 19.1411 11.9346 19.2811 12.3332 19.5235C12.818 19.8198 13.4859 20.2183 14.6818 20.2183C15.8723 20.2183 16.5396 19.8179 17.0238 19.5274L17.0303 19.5235L17.0347 19.5209C17.4307 19.2854 17.6735 19.1411 18.2692 19.1411C18.8649 19.1411 19.1077 19.2854 19.5037 19.5209L19.5081 19.5235C19.9929 19.8198 20.6608 20.2183 21.8567 20.2183V18.0637C21.2674 18.0637 21.0234 17.9224 20.6246 17.6915L20.607 17.6813C20.1222 17.385 19.4543 16.9864 18.2585 16.9864ZM18.6247 3.52005C18.6247 5.0075 17.4189 6.21331 15.9315 6.21331C14.444 6.21331 13.2382 5.0075 13.2382 3.52005C13.2382 2.03261 14.444 0.826791 15.9315 0.826791C17.4189 0.826791 18.6247 2.03261 18.6247 3.52005Z" fill="#7581A4"/>
</svg>
