<svg width="18" height="18" viewBox="0 0 18 18" fill="none" xmlns="http://www.w3.org/2000/svg">
<path d="M17.3177 3.68605C17.2554 3.52869 17.118 3.41332 16.9522 3.37905C16.7863 3.3447 16.6146 3.3962 16.4949 3.51589L13.9018 6.10896L12.5077 5.8092L12.208 4.41509L14.8011 1.82199C14.9208 1.7023 14.9722 1.53041 14.9379 1.36468C14.9036 1.19891 14.7882 1.06157 14.6309 0.999127C12.8506 0.293161 10.8254 0.711773 9.47144 2.06566C8.81966 2.71743 8.37209 3.53607 8.17713 4.43304C8.01033 5.20045 8.03377 5.99336 8.24333 6.74517L1.32317 13.6653C0.878587 14.1098 0.633789 14.7009 0.633789 15.3295C0.633789 15.9582 0.878587 16.5492 1.32313 16.9938C1.76768 17.4383 2.35868 17.6831 2.98734 17.6831C3.61598 17.6831 4.20704 17.4383 4.65156 16.9938L11.5717 10.0736C12.3236 10.2831 13.1164 10.3065 13.8838 10.1398C14.7808 9.9448 15.5995 9.49723 16.2512 8.84545C17.6052 7.49157 18.0237 5.46633 17.3177 3.68605Z" fill="#6A799E"/>
</svg>
